<?xml version="1.0" standalone="no"?>
<!DOCTYPE svg PUBLIC "-//W3C//DTD SVG 20010904//EN"
 "http://www.w3.org/TR/2001/REC-SVG-20010904/DTD/svg10.dtd">
<svg version="1.0" xmlns="http://www.w3.org/2000/svg"
 width="500.000000pt" height="500.000000pt" viewBox="0 0 500.000000 500.000000"
 preserveAspectRatio="xMidYMid meet">

<g transform="translate(0.000000,500.000000) scale(0.100000,-0.100000)"
fill="#000000" stroke="none">
<path d="M2057 3260 c-52 -9 -117 -59 -144 -111 -23 -42 -23 -47 -23 -424 0
-251 -4 -402 -12 -440 -24 -121 -127 -215 -236 -215 -85 0 -131 -18 -188 -75
-59 -58 -71 -103 -65 -243 l1 -24 203 4 c182 4 208 6 260 27 129 51 245 157
302 278 54 114 55 137 53 705 l-3 523 -55 1 c-30 0 -72 -3 -93 -6z"/>
<path d="M2339 3244 c-4 -122 -3 -297 1 -305 3 -4 152 -10 331 -11 l324 -3 67
-33 c91 -45 151 -106 195 -198 31 -65 37 -88 41 -168 5 -101 -7 -174 -40 -240
-33 -66 -115 -143 -191 -181 l-70 -35 -163 0 -164 0 0 288 c0 257 -2 291 -19
327 -42 91 -99 126 -222 133 l-86 5 -7 -29 c-4 -16 -4 -264 0 -551 l7 -523
246 0 c496 0 618 31 794 199 107 102 182 228 218 369 27 106 26 316 -1 425
-65 258 -267 461 -525 528 -70 18 -120 21 -407 26 l-328 6 -1 -29z m926 -374
c3 -6 -1 -7 -9 -4 -18 7 -21 14 -7 14 6 0 13 -4 16 -10z"/>
</g>
</svg>
